####
#
# OBJ File Generated by Meshlab
#
####
# Object board.obj
#
# Vertices: 8
# Faces: 12
#
####
mtllib ./board.obj.mtl

vn 0.577350 -0.577350 -0.577350
v 99.999992 -10.000005 -100.000000
vn -0.577350 -0.577350 -0.577350
v -99.999992 -10.000005 -100.000000
vn -0.577350 0.577350 -0.577351
v -99.999992 -0.000005 -100.000000
vn 0.577350 0.577350 -0.577350
v 99.999992 -0.000005 -100.000000
vn 0.577350 -0.577350 0.577350
v 99.999992 -9.999995 100.000000
vn 0.577350 0.577350 0.577350
v 99.999992 0.000005 100.000000
vn -0.577350 -0.577350 0.577351
v -99.999992 -9.999995 100.000000
vn -0.577350 0.577350 0.577350
v -99.999992 0.000005 100.000000
# 8 vertices, 0 vertices normals


usemtl material_0
vt 1.000837 0.697396
vt 0.000837 0.697396
vt 0.000837 0.647396
f 1/1/1 2/2/2 3/3/3
vt 1.000837 0.647396
f 1/1/1 3/3/3 4/4/4
vt 0.605599 -0.002604
vt 0.605599 0.997396
vt 0.555599 0.997396
f 5/5/5 1/6/1 4/7/4
vt 0.555599 -0.002604
f 5/5/5 4/7/4 6/8/6
vt 0.000000 0.000000
f 7/9/7 5/9/5 6/9/6
f 7/9/7 6/9/6 8/9/8
f 2/9/2 7/9/7 8/9/8
f 2/6/2 8/8/8 3/7/3
f 1/9/1 5/9/5 7/9/7
f 1/9/1 7/9/7 2/9/2
vt 1.000837 -0.002604
vt 1.000837 0.997396
vt 0.000837 -0.002604
f 6/10/6 4/11/4 8/12/8
vt 0.000837 0.997396
f 8/12/8 4/11/4 3/13/3
# 12 faces, 13 coords texture

# End of File
