# Blender v2.82 (sub 7) OBJ File: ''
# www.blender.org
mtllib floor_even_more_percent.mtl
o Cube.008_Cube.009
v 0.118652 0.001450 -0.379688
v 0.379688 0.001450 -0.379688
v 0.379688 0.001450 -0.118652
v 0.118652 0.001450 0.118652
v 0.379688 0.001450 0.118652
v 0.379688 0.001450 0.379687
v 0.118652 -0.000050 -0.118652
v 0.379688 -0.000050 -0.118652
v 0.379688 -0.000050 -0.379688
v 0.118652 -0.000050 0.379687
v 0.379688 -0.000050 0.379687
v 0.379688 -0.000050 0.118652
v -0.379687 0.001450 -0.379688
v -0.118652 0.001450 -0.379688
v -0.118652 0.001450 -0.118652
v -0.379687 0.001450 0.118652
v -0.118652 0.001450 0.118652
v -0.118652 0.001450 0.379687
v -0.379687 -0.000050 -0.118652
v -0.118652 -0.000050 -0.118652
v -0.118652 -0.000050 -0.379688
v -0.379687 -0.000050 0.379687
v -0.118652 -0.000050 0.379687
v -0.118652 -0.000050 0.118652
v 0.118652 0.001450 -0.118652
v 0.118652 0.001450 0.379687
v 0.118652 -0.000050 -0.379688
v 0.118652 -0.000050 0.118652
v -0.379687 -0.000050 -0.379688
v -0.379687 -0.000050 0.118652
v -0.379687 0.001450 0.379687
v -0.379687 0.001450 -0.118652
v -0.379032 0.001450 -0.379688
v -0.379032 0.001450 0.118652
v -0.379032 -0.000050 -0.118652
v -0.379032 -0.000050 0.379687
v -0.379032 0.001450 0.379687
v -0.379032 0.001450 -0.118652
v -0.379032 -0.000050 0.118652
v -0.379032 -0.000050 -0.379688
v 0.379688 0.001450 -0.379289
v 0.379688 -0.000050 -0.379289
v -0.118652 0.001450 -0.379289
v -0.118652 -0.000050 -0.379289
v 0.118652 0.001450 -0.379289
v 0.118652 -0.000050 -0.379289
v -0.379032 0.001450 -0.379289
v -0.379687 -0.000050 -0.379289
v -0.379032 -0.000050 -0.379289
v -0.379687 0.001450 -0.379289
vt -0.000000 1.000000
vt 0.343750 1.000000
vt 0.343750 0.656250
vt -0.000000 0.656250
vt 0.000000 0.000525
vt 0.343750 0.000525
vt 0.343750 0.343750
vt -0.000000 0.343750
vt -0.000000 0.656250
vt 0.343750 0.656250
vt 0.343750 1.000000
vt -0.000000 1.000000
vt 0.999132 -0.003212
vt 1.000008 -0.005080
vt 1.000000 -0.000000
vt 0.999138 0.000000
vt 0.999138 1.000000
vt 1.000000 1.000000
vt 1.000000 0.656250
vt 0.999138 0.656250
vt 0.999132 -0.003212
vt 1.000008 -0.005080
vt 1.000000 0.343750
vt 0.999138 0.343750
vt 0.999138 0.656250
vt 1.000000 0.656250
vt 1.000000 1.000000
vt 0.999138 1.000000
vt 0.343750 0.000525
vt 0.656250 0.000525
vt 0.656250 -0.000000
vt 0.343750 -0.000000
vt 0.656250 1.000000
vt 0.656250 0.656250
vt 0.656250 0.000525
vt 0.656250 0.343750
vt 0.656250 0.656250
vt 0.656250 1.000000
vt 0.500990 0.000292
vt 0.500988 0.343750
vt 0.499012 0.343750
vt 0.499010 0.000292
vt 0.343750 0.499012
vt 0.343750 0.500988
vt -0.000000 0.500988
vt -0.000000 0.499012
vt 0.499010 0.000292
vt 0.499012 0.343750
vt 0.500988 0.343750
vt 0.500990 0.000292
vt 0.999786 0.499006
vt 0.999410 0.500989
vt 0.656250 0.500988
vt 0.656250 0.499012
vt 0.500988 0.656250
vt 0.500988 1.000000
vt 0.499012 1.000000
vt 0.499012 0.656250
vt -0.000000 0.499012
vt -0.000000 0.500988
vt 0.343750 0.500988
vt 0.343750 0.499012
vt 0.499012 0.656250
vt 0.499012 1.000000
vt 0.500988 1.000000
vt 0.500988 0.656250
vt 0.999410 0.499011
vt 0.999786 0.500994
vt 1.000000 0.500988
vt 1.000000 0.499012
vt 0.343750 0.343750
vt -0.000000 0.343750
vt 1.000000 0.343750
vt 0.999138 0.343750
vt 0.656250 0.343750
vt 0.656250 0.500988
vt 0.656250 0.499012
vt -0.000000 -0.000000
vt 0.343750 -0.000000
vt 0.999138 0.000000
vt 1.000000 -0.000000
vt 0.656250 -0.000000
vt 0.500988 -0.000000
vt 0.499012 -0.000000
vt 0.499012 -0.000000
vt 0.500988 -0.000000
vt 0.000000 0.000525
vt 1.000000 0.499012
vt 1.000000 0.500988
vt -0.000000 -0.000000
vn 0.0000 -1.0000 0.0000
vn -0.0000 1.0000 -0.0000
vn -1.0000 0.0000 0.0000
vn 0.0000 0.0000 1.0000
vn 1.0000 0.0000 0.0000
vn 0.0000 0.0000 -1.0000
usemtl None.001
s 1
f 6/1/1 26/2/1 4/3/1 5/4/1
f 42/5/2 46/6/2 7/7/2 8/8/2
f 12/9/2 28/10/2 10/11/2 11/12/2
f 47/13/1 50/14/1 13/15/1 33/16/1
f 37/17/1 31/18/1 16/19/1 34/20/1
f 49/21/2 48/22/2 19/23/2 35/24/2
f 39/25/2 30/26/2 22/27/2 36/28/2
f 45/29/1 43/30/1 14/31/1 1/32/1
f 26/2/1 18/33/1 17/34/1 4/3/1
f 46/6/2 44/35/2 20/36/2 7/7/2
f 28/10/2 24/37/2 23/38/2 10/11/2
f 42/39/3 8/40/3 3/41/3 41/42/3
f 1/43/4 27/44/4 9/45/4 2/46/4
f 50/47/5 32/48/5 19/49/5 48/50/5
f 33/51/4 40/52/4 21/53/4 14/54/4
f 12/55/3 11/56/3 6/57/3 5/58/3
f 6/59/6 11/60/6 10/61/6 26/62/6
f 16/63/5 31/64/5 22/65/5 30/66/5
f 37/67/6 36/68/6 22/69/6 31/70/6
f 5/4/1 4/3/1 25/71/1 3/72/1
f 8/8/2 7/7/2 28/10/2 12/9/2
f 34/20/1 16/19/1 32/73/1 38/74/1
f 35/24/2 19/23/2 30/26/2 39/25/2
f 8/40/3 12/55/3 5/58/3 3/41/3
f 32/48/5 16/63/5 30/66/5 19/49/5
f 4/3/1 17/34/1 15/75/1 25/71/1
f 7/7/2 20/36/2 24/37/2 28/10/2
f 14/54/4 21/53/4 27/44/4 1/43/4
f 26/62/6 10/61/6 23/76/6 18/77/6
f 20/36/2 35/24/2 39/25/2 24/37/2
f 9/78/2 27/79/2 46/6/2 42/5/2
f 38/74/1 32/73/1 50/14/1 47/13/1
f 40/80/2 29/81/2 48/22/2 49/21/2
f 25/71/1 15/75/1 43/30/1 45/29/1
f 27/79/2 21/82/2 44/35/2 46/6/2
f 9/83/3 42/39/3 41/42/3 2/84/3
f 13/85/5 50/47/5 48/50/5 29/86/5
f 15/75/1 38/74/1 47/13/1 43/30/1
f 21/82/2 40/80/2 49/21/2 44/35/2
f 3/72/1 25/71/1 45/29/1 41/87/1
f 43/30/1 47/13/1 33/16/1 14/31/1
f 18/33/1 37/17/1 34/20/1 17/34/1
f 44/35/2 49/21/2 35/24/2 20/36/2
f 24/37/2 39/25/2 36/28/2 23/38/2
f 13/88/4 29/89/4 40/52/4 33/51/4
f 18/77/6 23/76/6 36/68/6 37/67/6
f 17/34/1 34/20/1 38/74/1 15/75/1
f 41/87/1 45/29/1 1/32/1 2/90/1
