<?xml version="1.0" encoding="UTF-8" standalone="no"?>
<!-- Created with Inkscape (http://www.inkscape.org/) -->

<svg
   xmlns:dc="http://purl.org/dc/elements/1.1/"
   xmlns:cc="http://creativecommons.org/ns#"
   xmlns:rdf="http://www.w3.org/1999/02/22-rdf-syntax-ns#"
   xmlns:svg="http://www.w3.org/2000/svg"
   xmlns="http://www.w3.org/2000/svg"
   xmlns:sodipodi="http://sodipodi.sourceforge.net/DTD/sodipodi-0.dtd"
   xmlns:inkscape="http://www.inkscape.org/namespaces/inkscape"
   width="40.869835mm"
   height="31.414627mm"
   viewBox="0 0 40.869835 31.414627"
   version="1.1"
   id="svg1306"
   inkscape:version="0.92.5 (2060ec1f9f, 2020-04-08)"
   sodipodi:docname="logo_env.svg">
  <defs
     id="defs1300" />
  <sodipodi:namedview
     id="base"
     pagecolor="#ffffff"
     bordercolor="#666666"
     borderopacity="1.0"
     inkscape:pageopacity="0.0"
     inkscape:pageshadow="2"
     inkscape:zoom="0.35"
     inkscape:cx="-231.33709"
     inkscape:cy="-114.91949"
     inkscape:document-units="mm"
     inkscape:current-layer="layer1"
     showgrid="false"
     fit-margin-top="0"
     fit-margin-left="0"
     fit-margin-right="0"
     fit-margin-bottom="0"
     inkscape:window-width="1050"
     inkscape:window-height="683"
     inkscape:window-x="1162"
     inkscape:window-y="743"
     inkscape:window-maximized="1" />
  <metadata
     id="metadata1303">
    <rdf:RDF>
      <cc:Work
         rdf:about="">
        <dc:format>image/svg+xml</dc:format>
        <dc:type
           rdf:resource="http://purl.org/dc/dcmitype/StillImage" />
        <dc:title></dc:title>
      </cc:Work>
    </rdf:RDF>
  </metadata>
  <g
     inkscape:label="Layer 1"
     inkscape:groupmode="layer"
     id="layer1"
     transform="translate(-6.7793677,-87.012923)">
    <path
       inkscape:connector-curvature="0"
       id="path827-6-3"
       style="fill:#e84e1b;fill-opacity:1;fill-rule:nonzero;stroke:none;stroke-width:0.03527778"
       d="m 37.536037,97.89812 c -0.260738,-0.75505 -1.081899,-1.157569 -1.836914,-0.897114 -0.386009,0.132574 -0.678003,0.413421 -0.837848,0.756673 -0.747184,0.474204 -1.91135,1.109487 -3.469922,1.638653 -0.81594,0.275449 -1.539522,0.461504 -2.16916,0.589492 -0.671125,-0.833543 -1.597166,-1.453797 -2.661144,-1.740323 -0.0014,-0.799395 0.05514,-1.760997 0.22613,-2.846882 0.175013,-1.106699 0.407917,-2.018947 0.644949,-2.762956 0.872419,-0.124177 1.645355,-0.645195 2.078214,-1.431925 0.752122,-1.365638 0.25467,-3.086806 -1.109451,-3.83921 -0.407917,-0.224755 -0.86681,-0.345758 -1.328597,-0.351402 -1.044539,-0.01242 -2.007658,0.547229 -2.510754,1.462229 -0.365055,0.660082 -0.450498,1.423528 -0.239501,2.148099 0.209162,0.724994 0.68901,1.32581 1.350468,1.690864 0.03277,0.01803 0.07013,0.03182 0.10474,0.04974 -0.0028,0.782849 -0.06064,1.711642 -0.226166,2.757311 -0.190147,1.20717 -0.450462,2.184471 -0.708307,2.96291 -1.380772,0.101988 -2.60985,0.749653 -3.471404,1.729458 -0.942587,-0.28127 -2.031224,-0.675252 -3.219098,-1.230595 C 16.34993,97.741167 15.036538,96.889527 14.091481,96.19099 14.300644,94.720613 13.606412,93.204798 12.230967,92.446608 11.7018,92.154437 11.105253,91.99611 10.504437,91.98909 9.1441713,91.97392 7.8942903,92.701665 7.2384803,93.890915 c -0.474182,0.860037 -0.585666,1.85346 -0.312952,2.794671 0.272989,0.944068 0.897103,1.725436 1.757136,2.199217 0.529167,0.291041 1.1257201,0.449509 1.7265567,0.456106 0.913625,0.01132 1.77338,-0.319546 2.440483,-0.894186 1.171222,0.268711 2.735403,0.741504 4.515839,1.573707 1.190625,0.55658 2.167537,1.11622 2.965556,1.63435 -0.154199,0.48644 -0.237032,1.00584 -0.237032,1.5434 0,0.86113 0.212337,1.67157 0.586917,2.38415 -0.422946,0.45614 -0.917505,0.94505 -1.496413,1.44392 -1.091565,0.94117 -2.049286,1.57508 -2.817954,2.01743 -0.310198,-0.15558 -0.65197,-0.24225 -0.996316,-0.24652 -0.849171,-0.01 -1.630504,0.44524 -2.039797,1.18787 -0.294886,0.53619 -0.365019,1.1563 -0.194027,1.74445 0.169368,0.58843 0.559223,1.07626 1.096786,1.37266 0.330588,0.18203 0.702804,0.28113 1.079147,0.2854 0.848854,0.009 1.628847,-0.44524 2.037963,-1.18678 0.293547,-0.53302 0.350026,-1.12999 0.210714,-1.6757 0.555625,-0.7094 1.336993,-1.58319 2.386895,-2.48846 0.577391,-0.49882 1.116224,-0.90702 1.60969,-1.25137 0.931298,0.95222 2.22952,1.5434 3.666843,1.5434 0.409116,0 0.808884,-0.0497 1.190625,-0.14072 0,-0.0328 -0.0029,-0.0646 -0.0029,-0.0991 0,-0.002 0,-0.003 0,-0.004 0,-2.33013 1.805482,-3.57728 3.866762,-4.01673 0.04837,-0.28261 0.0744,-0.57327 0.0744,-0.86967 0,-0.69741 -0.138888,-1.36137 -0.39123,-1.9692 0.509905,-0.23704 1.088813,-0.47407 1.734961,-0.69455 1.710021,-0.57863 3.019142,-0.764791 3.902464,-0.843214 0.318593,0.136137 0.685165,0.163724 1.037942,0.04382 0.754909,-0.260456 1.157428,-1.081616 0.898491,-1.836914"
       inkscape:export-xdpi="199.70949"
       inkscape:export-ydpi="199.70949" />
    <rect
       style="fill:#3c3c3b;fill-opacity:1;stroke:none;stroke-width:2.0789032;stroke-miterlimit:4;stroke-dasharray:none;stroke-dashoffset:0;stroke-opacity:1"
       id="rect3765-2-3-6"
       width="8.933404"
       height="1.6614159"
       x="32.30748"
       y="110.71383"
       inkscape:export-xdpi="199.70949"
       inkscape:export-ydpi="199.70949" />
    <rect
       style="fill:#3c3c3b;fill-opacity:1;stroke:none;stroke-width:2.69863868;stroke-miterlimit:4;stroke-dasharray:none;stroke-dashoffset:0;stroke-opacity:1"
       id="rect3767-8-8-5"
       width="2.3734517"
       height="9.0191164"
       x="27.560574"
       y="107.03498"
       inkscape:export-xdpi="199.70949"
       inkscape:export-ydpi="199.70949" />
    <rect
       style="fill:#3c3c3b;fill-opacity:1;stroke:none;stroke-width:2.15026546;stroke-miterlimit:4;stroke-dasharray:none;stroke-dashoffset:0;stroke-opacity:1"
       id="rect3769-8-0-2"
       width="2.3734517"
       height="13.766021"
       x="29.934027"
       y="104.66153"
       inkscape:export-xdpi="199.70949"
       inkscape:export-ydpi="199.70949" />
    <rect
       style="fill:#3c3c3b;fill-opacity:1;stroke:none;stroke-width:2.49390721;stroke-miterlimit:4;stroke-dasharray:none;stroke-dashoffset:0;stroke-opacity:1"
       id="rect3771-9-4-6"
       width="1.6614159"
       height="1.6614159"
       x="25.899155"
       y="110.71383"
       inkscape:export-xdpi="199.70949"
       inkscape:export-ydpi="199.70949" />
    <g
       style="fill:#3c3c3b;fill-opacity:1;stroke:none;stroke-opacity:1"
       id="g3797-2-7-5"
       transform="matrix(2.3734515,0,0,2.3734515,-31.326511,105.16277)"
       inkscape:export-xdpi="199.70949"
       inkscape:export-ydpi="199.70949">
      <rect
         transform="scale(-1,1)"
         y="0.78881139"
         x="-32.574627"
         height="3.8"
         width="1"
         id="rect3767-6-8-6-8"
         style="fill:#3c3c3b;fill-opacity:1;stroke:none;stroke-width:1.13701022;stroke-miterlimit:4;stroke-dasharray:none;stroke-dashoffset:0;stroke-opacity:1" />
      <rect
         transform="scale(-1,1)"
         y="-0.2111886"
         x="-31.574627"
         height="5.8000002"
         width="1"
         id="rect3769-4-8-8-7"
         style="fill:#3c3c3b;fill-opacity:1;stroke:none;stroke-width:0.90596563;stroke-miterlimit:4;stroke-dasharray:none;stroke-dashoffset:0;stroke-opacity:1" />
      <rect
         transform="scale(-1,1)"
         y="2.3388107"
         x="-33.274628"
         height="0.69999999"
         width="0.69999999"
         id="rect3771-1-8-9-9"
         style="fill:#3c3c3b;fill-opacity:1;stroke:none;stroke-width:1.05075133;stroke-miterlimit:4;stroke-dasharray:none;stroke-dashoffset:0;stroke-opacity:1" />
    </g>
  </g>
</svg>
