solid Exported from Blender-3.0.1
facet normal 0.240477 -0.584841 -0.774682
outer loop
vertex -0.000009 -0.006584 0.345996
vertex 0.001556 -0.004556 0.344950
vertex 0.002531 -0.005533 0.345991
endloop
endfacet
facet normal 0.584241 -0.241964 -0.774671
outer loop
vertex 0.002200 -0.003000 0.344950
vertex 0.002531 -0.005533 0.345991
vertex 0.001556 -0.004556 0.344950
endloop
endfacet
facet normal 0.581642 0.244751 -0.775751
outer loop
vertex 0.001555 -0.001444 0.344950
vertex 0.002539 -0.000474 0.345994
vertex 0.003578 -0.003127 0.345936
endloop
endfacet
facet normal 0.242625 0.585789 -0.773295
outer loop
vertex 0.000000 -0.000800 0.344950
vertex 0.002539 -0.000474 0.345994
vertex 0.001555 -0.001444 0.344950
endloop
endfacet
facet normal 0.243460 0.583602 -0.774685
outer loop
vertex 0.000000 -0.000800 0.344950
vertex 0.000009 0.000584 0.345996
vertex 0.002539 -0.000474 0.345994
endloop
endfacet
facet normal -0.242622 0.585823 -0.773270
outer loop
vertex -0.001555 -0.001444 0.344950
vertex 0.000009 0.000584 0.345996
vertex 0.000000 -0.000800 0.344950
endloop
endfacet
facet normal -0.581681 -0.244771 -0.775715
outer loop
vertex -0.003578 -0.002873 0.345936
vertex -0.001556 -0.004556 0.344950
vertex -0.002539 -0.005526 0.345994
endloop
endfacet
facet normal -0.546613 0.256149 -0.797247
outer loop
vertex -0.002531 -0.000467 0.345991
vertex -0.002200 -0.003000 0.344950
vertex -0.003578 -0.002873 0.345936
endloop
endfacet
facet normal -0.240504 0.584889 -0.774637
outer loop
vertex -0.001555 -0.001444 0.344950
vertex -0.002531 -0.000467 0.345991
vertex 0.000009 0.000584 0.345996
endloop
endfacet
facet normal -0.584163 0.241995 -0.774721
outer loop
vertex -0.002531 -0.000467 0.345991
vertex -0.001555 -0.001444 0.344950
vertex -0.002200 -0.003000 0.344950
endloop
endfacet
facet normal 0.546613 -0.256150 -0.797246
outer loop
vertex 0.002200 -0.003000 0.344950
vertex 0.003578 -0.003127 0.345936
vertex 0.002531 -0.005533 0.345991
endloop
endfacet
facet normal 0.242694 -0.585807 -0.773260
outer loop
vertex -0.000009 -0.006584 0.345996
vertex 0.000000 -0.005200 0.344950
vertex 0.001556 -0.004556 0.344950
endloop
endfacet
facet normal -0.243459 -0.583605 -0.774682
outer loop
vertex -0.002539 -0.005526 0.345994
vertex 0.000000 -0.005200 0.344950
vertex -0.000009 -0.006584 0.345996
endloop
endfacet
facet normal -0.242647 -0.585705 -0.773351
outer loop
vertex -0.002539 -0.005526 0.345994
vertex -0.001556 -0.004556 0.344950
vertex 0.000000 -0.005200 0.344950
endloop
endfacet
facet normal -0.923861 0.382729 0.000000
outer loop
vertex -0.002200 -0.003000 0.344950
vertex -0.001555 -0.001444 0.344950
vertex -0.002200 -0.003000 0.021950
endloop
endfacet
facet normal -0.579260 -0.239911 -0.779038
outer loop
vertex -0.003578 -0.002873 0.345936
vertex -0.002200 -0.003000 0.344950
vertex -0.001556 -0.004556 0.344950
endloop
endfacet
facet normal -0.923898 -0.382638 -0.000000
outer loop
vertex -0.001556 -0.004556 0.344950
vertex -0.002200 -0.003000 0.344950
vertex -0.001556 -0.004556 0.021950
endloop
endfacet
facet normal -0.923880 -0.382683 -0.000000
outer loop
vertex -0.002200 -0.003000 0.344950
vertex -0.002200 -0.003000 0.021950
vertex -0.001556 -0.004556 0.021950
endloop
endfacet
facet normal -0.382638 0.923898 -0.000000
outer loop
vertex -0.001556 -0.001444 0.021950
vertex -0.001555 -0.001444 0.344950
vertex 0.000000 -0.000800 0.344950
endloop
endfacet
facet normal -0.923879 0.382683 0.000000
outer loop
vertex -0.001555 -0.001444 0.344950
vertex -0.001556 -0.001444 0.021950
vertex -0.002200 -0.003000 0.021950
endloop
endfacet
facet normal 0.382638 0.923898 0.000000
outer loop
vertex 0.000000 -0.000800 0.021950
vertex 0.000000 -0.000800 0.344950
vertex 0.001555 -0.001444 0.344950
endloop
endfacet
facet normal -0.382683 0.923880 0.000000
outer loop
vertex 0.000000 -0.000800 0.021950
vertex -0.001556 -0.001444 0.021950
vertex 0.000000 -0.000800 0.344950
endloop
endfacet
facet normal 0.579227 0.239979 -0.779042
outer loop
vertex 0.001555 -0.001444 0.344950
vertex 0.003578 -0.003127 0.345936
vertex 0.002200 -0.003000 0.344950
endloop
endfacet
facet normal 0.923861 0.382729 0.000000
outer loop
vertex 0.001555 -0.001444 0.344950
vertex 0.002200 -0.003000 0.344950
vertex 0.001556 -0.001444 0.021950
endloop
endfacet
facet normal 0.382683 0.923880 -0.000000
outer loop
vertex 0.001556 -0.001444 0.021950
vertex 0.000000 -0.000800 0.021950
vertex 0.001555 -0.001444 0.344950
endloop
endfacet
facet normal 0.923898 -0.382638 -0.000000
outer loop
vertex 0.002200 -0.003000 0.344950
vertex 0.001556 -0.004556 0.344950
vertex 0.002200 -0.003000 0.021950
endloop
endfacet
facet normal 0.923879 0.382683 0.000000
outer loop
vertex 0.002200 -0.003000 0.344950
vertex 0.002200 -0.003000 0.021950
vertex 0.001556 -0.001444 0.021950
endloop
endfacet
facet normal -0.382729 -0.923861 -0.000000
outer loop
vertex 0.000000 -0.005200 0.021950
vertex 0.000000 -0.005200 0.344950
vertex -0.001556 -0.004556 0.344950
endloop
endfacet
facet normal 0.382729 -0.923861 0.000000
outer loop
vertex 0.001556 -0.004556 0.021950
vertex 0.001556 -0.004556 0.344950
vertex 0.000000 -0.005200 0.344950
endloop
endfacet
facet normal 0.382683 -0.923880 -0.000000
outer loop
vertex 0.000000 -0.005200 0.021950
vertex 0.001556 -0.004556 0.021950
vertex 0.000000 -0.005200 0.344950
endloop
endfacet
facet normal -0.382683 -0.923880 0.000000
outer loop
vertex -0.001556 -0.004556 0.021950
vertex 0.000000 -0.005200 0.021950
vertex -0.001556 -0.004556 0.344950
endloop
endfacet
facet normal 0.923880 -0.382683 -0.000000
outer loop
vertex 0.001556 -0.004556 0.344950
vertex 0.001556 -0.004556 0.021950
vertex 0.002200 -0.003000 0.021950
endloop
endfacet
facet normal 0.000001 0.000000 -1.000000
outer loop
vertex 0.002200 -0.003000 0.021950
vertex 0.001556 -0.004556 0.021950
vertex 0.000000 -0.005200 0.021950
endloop
endfacet
facet normal -0.000001 0.000000 -1.000000
outer loop
vertex -0.002200 -0.003000 0.021950
vertex 0.000000 -0.005200 0.021950
vertex -0.001556 -0.004556 0.021950
endloop
endfacet
facet normal 0.000000 0.000000 -1.000000
outer loop
vertex 0.000000 -0.000800 0.021950
vertex 0.001556 -0.001444 0.021950
vertex 0.002200 -0.003000 0.021950
endloop
endfacet
facet normal 0.000001 0.000000 -1.000000
outer loop
vertex 0.000000 -0.000800 0.021950
vertex 0.002200 -0.003000 0.021950
vertex 0.000000 -0.005200 0.021950
endloop
endfacet
facet normal -0.000001 0.000000 -1.000000
outer loop
vertex 0.000000 -0.000800 0.021950
vertex 0.000000 -0.005200 0.021950
vertex -0.002200 -0.003000 0.021950
endloop
endfacet
facet normal 0.000000 0.000000 -1.000000
outer loop
vertex -0.001556 -0.001444 0.021950
vertex 0.000000 -0.000800 0.021950
vertex -0.002200 -0.003000 0.021950
endloop
endfacet
facet normal -0.770304 0.637468 -0.016332
outer loop
vertex -0.000774 -0.000604 0.021998
vertex -0.000752 -0.000703 0.017098
vertex -0.002459 -0.002822 0.014896
endloop
endfacet
facet normal -0.782941 0.622038 -0.008515
outer loop
vertex -0.002230 -0.002436 0.022000
vertex -0.000774 -0.000604 0.021998
vertex -0.002459 -0.002822 0.014896
endloop
endfacet
facet normal -0.999994 -0.000105 0.003542
outer loop
vertex -0.002259 -0.003433 0.013750
vertex -0.002230 -0.003564 0.022000
vertex -0.002230 -0.002436 0.022000
endloop
endfacet
facet normal -0.965184 -0.261570 -0.000746
outer loop
vertex -0.002118 -0.003897 -0.005897
vertex -0.002230 -0.003564 0.022000
vertex -0.002259 -0.003433 0.013750
endloop
endfacet
facet normal -0.879685 -0.475553 0.001709
outer loop
vertex -0.001693 -0.004556 0.022000
vertex -0.002230 -0.003564 0.022000
vertex -0.001854 -0.004361 -0.006361
endloop
endfacet
facet normal -0.675710 -0.737167 -0.001248
outer loop
vertex -0.001854 -0.004361 -0.006361
vertex -0.001148 -0.005008 -0.006886
vertex -0.001693 -0.004556 0.022000
endloop
endfacet
facet normal -0.868347 -0.495952 0.002432
outer loop
vertex -0.002230 -0.003564 0.022000
vertex -0.002118 -0.003897 -0.005897
vertex -0.001854 -0.004361 -0.006361
endloop
endfacet
facet normal -0.917024 -0.395553 0.051037
outer loop
vertex -0.002230 -0.002436 0.022000
vertex -0.002459 -0.002822 0.014896
vertex -0.002259 -0.003433 0.013750
endloop
endfacet
facet normal -0.006777 0.881713 -0.471738
outer loop
vertex -0.002259 -0.003433 0.013750
vertex -0.002459 -0.002822 0.014896
vertex 0.002292 -0.003352 0.013836
endloop
endfacet
facet normal 0.996930 0.077699 0.009648
outer loop
vertex 0.002230 -0.003564 0.022000
vertex 0.002292 -0.003352 0.013836
vertex 0.002097 -0.001854 0.021975
endloop
endfacet
facet normal 0.821404 0.564116 -0.084076
outer loop
vertex 0.002097 -0.001854 0.021975
vertex 0.002292 -0.003352 0.013836
vertex 0.000793 -0.000669 0.017189
endloop
endfacet
facet normal 0.607091 0.794019 0.031217
outer loop
vertex 0.000793 -0.000669 0.017189
vertex 0.000750 -0.000826 0.022000
vertex 0.002097 -0.001854 0.021975
endloop
endfacet
facet normal 0.154536 0.965494 0.209617
outer loop
vertex 0.002292 -0.003352 0.013836
vertex -0.002459 -0.002822 0.014896
vertex -0.000091 -0.003222 0.014992
endloop
endfacet
facet normal -0.021369 0.977446 0.210100
outer loop
vertex 0.001306 -0.003151 0.012800
vertex -0.002259 -0.003433 0.013750
vertex 0.002292 -0.003352 0.013836
endloop
endfacet
facet normal 0.547982 -0.836469 0.005865
outer loop
vertex 0.001149 -0.004997 0.010032
vertex 0.001694 -0.004556 0.022000
vertex 0.000750 -0.005174 0.022000
endloop
endfacet
facet normal 0.625319 -0.780369 0.000279
outer loop
vertex 0.001191 -0.004969 -0.006966
vertex 0.001694 -0.004556 0.022000
vertex 0.001149 -0.004997 0.010032
endloop
endfacet
facet normal 0.879712 -0.475503 0.002074
outer loop
vertex 0.002230 -0.003564 0.022000
vertex 0.001694 -0.004556 0.022000
vertex 0.001904 -0.004290 -0.006290
endloop
endfacet
facet normal 0.924302 -0.381662 -0.000848
outer loop
vertex 0.002230 -0.003564 0.022000
vertex 0.001904 -0.004290 -0.006290
vertex 0.002259 -0.003433 -0.005250
endloop
endfacet
facet normal 0.690390 -0.723436 -0.001661
outer loop
vertex 0.001191 -0.004969 -0.006966
vertex 0.001904 -0.004290 -0.006290
vertex 0.001694 -0.004556 0.022000
endloop
endfacet
facet normal 0.406350 -0.913717 0.000000
outer loop
vertex 0.001149 -0.004997 0.010032
vertex 0.000750 -0.005174 0.022000
vertex 0.000750 -0.005174 0.015800
endloop
endfacet
facet normal 0.587704 0.514429 -0.624473
outer loop
vertex 0.000726 -0.003852 -0.007037
vertex 0.002259 -0.003433 -0.005250
vertex 0.001904 -0.004290 -0.006290
endloop
endfacet
facet normal 0.385147 0.768872 -0.510390
outer loop
vertex 0.001258 -0.003184 -0.005631
vertex 0.002259 -0.003433 -0.005250
vertex 0.000726 -0.003852 -0.007037
endloop
endfacet
facet normal 0.575116 0.188670 -0.796018
outer loop
vertex 0.000726 -0.003852 -0.007037
vertex 0.001904 -0.004290 -0.006290
vertex 0.001191 -0.004969 -0.006966
endloop
endfacet
facet normal -0.032760 -0.076959 -0.996496
outer loop
vertex 0.001191 -0.004969 -0.006966
vertex -0.001148 -0.005008 -0.006886
vertex 0.000726 -0.003852 -0.007037
endloop
endfacet
facet normal 0.062600 -0.997691 -0.026351
outer loop
vertex 0.001149 -0.004997 0.010032
vertex 0.000750 -0.005174 0.015800
vertex -0.000730 -0.005247 0.015046
endloop
endfacet
facet normal 0.319774 -0.944703 0.072668
outer loop
vertex -0.000009 -0.005328 0.010820
vertex 0.001149 -0.004997 0.010032
vertex -0.000730 -0.005247 0.015046
endloop
endfacet
facet normal -0.573461 0.059010 -0.817105
outer loop
vertex 0.001149 -0.004997 0.010032
vertex -0.000009 -0.005328 0.010820
vertex -0.000591 -0.003441 0.011365
endloop
endfacet
facet normal -0.688692 -0.164943 -0.706043
outer loop
vertex 0.001290 -0.003143 0.009461
vertex 0.001149 -0.004997 0.010032
vertex -0.000591 -0.003441 0.011365
endloop
endfacet
facet normal 0.904950 0.349183 -0.243182
outer loop
vertex -0.001004 -0.003048 0.010391
vertex -0.000591 -0.003441 0.011365
vertex -0.000009 -0.005328 0.010820
endloop
endfacet
facet normal -0.547963 -0.836471 0.007206
outer loop
vertex -0.000730 -0.005247 0.015046
vertex -0.000750 -0.005174 0.022000
vertex -0.001693 -0.004556 0.022000
endloop
endfacet
facet normal -0.557440 -0.830201 0.005270
outer loop
vertex -0.001693 -0.004556 0.022000
vertex -0.001148 -0.004998 0.010000
vertex -0.000730 -0.005247 0.015046
endloop
endfacet
facet normal -0.260436 -0.965141 -0.025999
outer loop
vertex -0.001148 -0.004998 0.010000
vertex -0.000009 -0.005328 0.010820
vertex -0.000730 -0.005247 0.015046
endloop
endfacet
facet normal 0.601941 0.113905 -0.790375
outer loop
vertex -0.000009 -0.005328 0.010820
vertex -0.001148 -0.004998 0.010000
vertex -0.001004 -0.003048 0.010391
endloop
endfacet
facet normal -0.597125 -0.000485 -0.802148
outer loop
vertex -0.001317 -0.003685 -0.006761
vertex -0.001148 -0.005008 -0.006886
vertex -0.001854 -0.004361 -0.006361
endloop
endfacet
facet normal -0.127206 0.077162 -0.988870
outer loop
vertex -0.001317 -0.003685 -0.006761
vertex 0.000726 -0.003852 -0.007037
vertex -0.001148 -0.005008 -0.006886
endloop
endfacet
facet normal -0.742127 0.213513 -0.635343
outer loop
vertex -0.001854 -0.004361 -0.006361
vertex -0.002118 -0.003897 -0.005897
vertex -0.001317 -0.003685 -0.006761
endloop
endfacet
facet normal -0.152243 0.892590 0.424388
outer loop
vertex -0.002259 -0.003433 0.010750
vertex -0.000591 -0.003441 0.011365
vertex -0.001004 -0.003048 0.010391
endloop
endfacet
facet normal 0.141129 0.656573 -0.740942
outer loop
vertex -0.002459 -0.002822 0.014896
vertex -0.000752 -0.000703 0.017098
vertex -0.000091 -0.003222 0.014992
endloop
endfacet
facet normal -0.454166 0.166528 0.875215
outer loop
vertex -0.000730 -0.005247 0.015046
vertex 0.000750 -0.005174 0.015800
vertex -0.000091 -0.003222 0.014992
endloop
endfacet
facet normal 0.001550 0.000000 0.999999
outer loop
vertex -0.000774 -0.000604 0.021998
vertex -0.002230 -0.002436 0.022000
vertex -0.002230 -0.003564 0.022000
endloop
endfacet
facet normal 0.000736 0.000398 1.000000
outer loop
vertex -0.000774 -0.000604 0.021998
vertex -0.002230 -0.003564 0.022000
vertex -0.001693 -0.004556 0.022000
endloop
endfacet
facet normal 0.000322 0.000494 1.000000
outer loop
vertex -0.000774 -0.000604 0.021998
vertex -0.001693 -0.004556 0.022000
vertex -0.000750 -0.005174 0.022000
endloop
endfacet
facet normal -0.023799 0.012864 0.999634
outer loop
vertex 0.002097 -0.001854 0.021975
vertex 0.001694 -0.004556 0.022000
vertex 0.002230 -0.003564 0.022000
endloop
endfacet
facet normal 0.018691 0.000000 0.999825
outer loop
vertex 0.002097 -0.001854 0.021975
vertex 0.000750 -0.000826 0.022000
vertex 0.000750 -0.005174 0.022000
endloop
endfacet
facet normal -0.006764 0.010325 0.999924
outer loop
vertex 0.002097 -0.001854 0.021975
vertex 0.000750 -0.005174 0.022000
vertex 0.001694 -0.004556 0.022000
endloop
endfacet
facet normal 0.806329 -0.240213 0.540491
outer loop
vertex -0.000730 -0.005247 0.015046
vertex -0.000091 -0.003222 0.014992
vertex -0.000752 -0.000703 0.017098
endloop
endfacet
facet normal 0.999976 0.005284 0.004402
outer loop
vertex -0.000750 -0.005174 0.022000
vertex -0.000752 -0.000703 0.017098
vertex -0.000774 -0.000604 0.021998
endloop
endfacet
facet normal 0.999990 0.003555 0.002825
outer loop
vertex -0.000750 -0.005174 0.022000
vertex -0.000730 -0.005247 0.015046
vertex -0.000752 -0.000703 0.017098
endloop
endfacet
facet normal -0.624652 -0.780903 0.000400
outer loop
vertex -0.001693 -0.004556 0.022000
vertex -0.001148 -0.005008 -0.006886
vertex -0.001148 -0.004998 0.010000
endloop
endfacet
facet normal -0.999960 0.000000 -0.008945
outer loop
vertex 0.000793 -0.000669 0.017189
vertex 0.000750 -0.005174 0.022000
vertex 0.000750 -0.000826 0.022000
endloop
endfacet
facet normal -0.999954 0.009553 0.000000
outer loop
vertex 0.000750 -0.005174 0.015800
vertex 0.000750 -0.005174 0.022000
vertex 0.000793 -0.000669 0.017189
endloop
endfacet
facet normal -0.844133 -0.150572 0.514555
outer loop
vertex 0.000750 -0.005174 0.015800
vertex 0.000793 -0.000669 0.017189
vertex -0.000091 -0.003222 0.014992
endloop
endfacet
facet normal 0.239357 0.970919 0.004933
outer loop
vertex 0.002230 -0.003564 0.022000
vertex 0.002259 -0.003433 -0.005250
vertex 0.001258 -0.003184 -0.005631
endloop
endfacet
facet normal 0.453148 0.891428 -0.003680
outer loop
vertex 0.002230 -0.003564 0.022000
vertex 0.001258 -0.003184 -0.005631
vertex 0.001266 -0.003161 0.001092
endloop
endfacet
facet normal -0.182633 -0.983124 -0.010554
outer loop
vertex 0.002230 -0.003564 0.022000
vertex 0.001266 -0.003161 0.001092
vertex 0.001923 -0.003309 0.003573
endloop
endfacet
facet normal -0.256978 -0.966393 -0.006806
outer loop
vertex 0.002230 -0.003564 0.022000
vertex 0.001266 -0.003161 0.001092
vertex 0.002256 -0.003432 0.002267
endloop
endfacet
facet normal 0.333343 0.942781 0.006752
outer loop
vertex 0.002230 -0.003564 0.022000
vertex 0.002256 -0.003432 0.002267
vertex 0.001247 -0.003077 0.002526
endloop
endfacet
facet normal -0.475634 0.878442 0.045948
outer loop
vertex 0.002230 -0.003564 0.022000
vertex 0.001247 -0.003077 0.002526
vertex 0.001151 -0.003255 0.004919
endloop
endfacet
facet normal 0.193390 -0.980664 -0.029968
outer loop
vertex 0.002230 -0.003564 0.022000
vertex 0.001151 -0.003255 0.004919
vertex 0.001694 -0.003196 0.006481
endloop
endfacet
facet normal 0.237067 0.971379 0.014898
outer loop
vertex 0.002230 -0.003564 0.022000
vertex 0.001694 -0.003196 0.006481
vertex 0.001290 -0.003143 0.009461
endloop
endfacet
facet normal -0.288862 -0.957313 -0.010543
outer loop
vertex 0.002230 -0.003564 0.022000
vertex 0.001290 -0.003143 0.009461
vertex 0.002262 -0.003439 0.009743
endloop
endfacet
facet normal -0.114909 0.992488 0.041991
outer loop
vertex 0.002230 -0.003564 0.022000
vertex 0.001290 -0.003143 0.009461
vertex -0.000591 -0.003441 0.011365
endloop
endfacet
facet normal 0.197831 -0.978157 -0.063814
outer loop
vertex 0.002230 -0.003564 0.022000
vertex -0.000591 -0.003441 0.011365
vertex 0.001306 -0.003151 0.012800
endloop
endfacet
facet normal -0.172572 -0.984629 -0.026920
outer loop
vertex 0.002230 -0.003564 0.022000
vertex 0.001306 -0.003151 0.012800
vertex 0.002292 -0.003352 0.013836
endloop
endfacet
facet normal -0.289615 0.680021 -0.673569
outer loop
vertex -0.000091 -0.003222 0.014992
vertex 0.000793 -0.000669 0.017189
vertex 0.002292 -0.003352 0.013836
endloop
endfacet
facet normal 0.319779 0.946129 -0.050802
outer loop
vertex 0.001266 -0.003161 0.001092
vertex 0.001247 -0.003077 0.002526
vertex 0.002256 -0.003432 0.002267
endloop
endfacet
facet normal -0.041875 0.998847 -0.023457
outer loop
vertex 0.001151 -0.003255 0.004919
vertex 0.001290 -0.003143 0.009461
vertex 0.001694 -0.003196 0.006481
endloop
endfacet
facet normal -0.922042 -0.385683 -0.032977
outer loop
vertex 0.001191 -0.004969 -0.006966
vertex 0.001150 -0.004992 -0.005550
vertex 0.000726 -0.003852 -0.007037
endloop
endfacet
facet normal 0.477588 -0.878584 -0.000249
outer loop
vertex 0.001191 -0.004969 -0.006966
vertex 0.001149 -0.004997 0.010032
vertex 0.001150 -0.004992 -0.005550
endloop
endfacet
facet normal -0.943724 0.070731 0.323082
outer loop
vertex 0.000726 -0.003852 -0.007037
vertex 0.001150 -0.004992 -0.005550
vertex 0.001258 -0.003184 -0.005631
endloop
endfacet
facet normal -0.998222 0.059601 0.001051
outer loop
vertex 0.001266 -0.003161 0.001092
vertex 0.001258 -0.003184 -0.005631
vertex 0.001150 -0.004992 -0.005550
endloop
endfacet
facet normal -0.996019 0.084481 0.028441
outer loop
vertex 0.001149 -0.004997 0.010032
vertex 0.001290 -0.003143 0.009461
vertex 0.001151 -0.003255 0.004919
endloop
endfacet
facet normal -1.000000 0.000778 -0.000074
outer loop
vertex 0.001150 -0.004992 -0.005550
vertex 0.001149 -0.004997 0.010032
vertex 0.001151 -0.003255 0.004919
endloop
endfacet
facet normal -0.985684 0.166341 -0.027542
outer loop
vertex 0.001150 -0.004992 -0.005550
vertex 0.001151 -0.003255 0.004919
vertex 0.001247 -0.003077 0.002526
endloop
endfacet
facet normal -0.989957 0.139770 -0.021191
outer loop
vertex 0.001150 -0.004992 -0.005550
vertex 0.001247 -0.003077 0.002526
vertex 0.001266 -0.003161 0.001092
endloop
endfacet
facet normal 0.997365 -0.070687 -0.016305
outer loop
vertex -0.001004 -0.003048 0.010391
vertex -0.001148 -0.004998 0.010000
vertex -0.001167 -0.003322 0.001568
endloop
endfacet
facet normal 0.991393 0.128812 -0.023387
outer loop
vertex -0.001167 -0.003322 0.001568
vertex -0.001148 -0.005008 -0.006886
vertex -0.001317 -0.003685 -0.006761
endloop
endfacet
facet normal 0.999934 0.011482 0.000030
outer loop
vertex -0.001148 -0.004998 0.010000
vertex -0.001148 -0.005008 -0.006886
vertex -0.001167 -0.003322 0.001568
endloop
endfacet
facet normal -0.085261 0.996067 -0.024114
outer loop
vertex -0.002118 -0.003897 -0.005897
vertex -0.002259 -0.003433 0.013750
vertex 0.001306 -0.003151 0.012800
endloop
endfacet
facet normal 0.141013 -0.989914 0.013658
outer loop
vertex -0.002118 -0.003897 -0.005897
vertex 0.001306 -0.003151 0.012800
vertex -0.000591 -0.003441 0.011365
endloop
endfacet
facet normal -0.014898 -0.999505 0.027709
outer loop
vertex -0.002118 -0.003897 -0.005897
vertex -0.000591 -0.003441 0.011365
vertex -0.002259 -0.003433 0.010750
endloop
endfacet
facet normal -0.300546 0.953324 -0.029091
outer loop
vertex -0.002118 -0.003897 -0.005897
vertex -0.002259 -0.003433 0.010750
vertex -0.001004 -0.003048 0.010391
endloop
endfacet
facet normal -0.389495 0.920782 -0.021311
outer loop
vertex -0.002118 -0.003897 -0.005897
vertex -0.001004 -0.003048 0.010391
vertex -0.001167 -0.003322 0.001568
endloop
endfacet
facet normal -0.292091 0.955697 -0.036406
outer loop
vertex -0.002118 -0.003897 -0.005897
vertex -0.001167 -0.003322 0.001568
vertex -0.001317 -0.003685 -0.006761
endloop
endfacet
facet normal 0.009297 0.887699 0.460330
outer loop
vertex 0.000748 0.000414 0.017943
vertex -0.000738 0.000454 0.017896
vertex -0.000758 -0.001776 0.022196
endloop
endfacet
facet normal 0.017600 0.964146 0.264789
outer loop
vertex -0.000248 0.002108 0.011841
vertex -0.000738 0.000454 0.017896
vertex 0.000748 0.000414 0.017943
endloop
endfacet
facet normal -0.303399 0.925147 0.228151
outer loop
vertex -0.001150 0.002133 0.010538
vertex -0.000738 0.000454 0.017896
vertex -0.000248 0.002108 0.011841
endloop
endfacet
facet normal -0.569117 0.794156 0.213126
outer loop
vertex -0.001150 0.002133 0.010538
vertex -0.001478 0.000089 0.017279
vertex -0.000738 0.000454 0.017896
endloop
endfacet
facet normal -0.042001 -0.837421 0.544942
outer loop
vertex -0.001478 0.000089 0.017279
vertex -0.000753 -0.001212 0.015335
vertex -0.000738 0.000454 0.017896
endloop
endfacet
facet normal -0.005445 -0.831910 0.554883
outer loop
vertex -0.001478 0.000089 0.017279
vertex -0.002065 -0.000463 0.016445
vertex -0.000753 -0.001212 0.015335
endloop
endfacet
facet normal -0.787761 0.594543 0.161094
outer loop
vertex -0.002065 -0.000463 0.016445
vertex -0.001478 0.000089 0.017279
vertex -0.001941 0.005500 -0.004953
endloop
endfacet
facet normal -0.701402 0.689060 0.182296
outer loop
vertex -0.001192 0.006398 -0.005469
vertex -0.001941 0.005500 -0.004953
vertex -0.001478 0.000089 0.017279
endloop
endfacet
facet normal -0.569558 0.793868 0.213017
outer loop
vertex -0.001192 0.006398 -0.005469
vertex -0.001478 0.000089 0.017279
vertex -0.001150 0.002133 0.010538
endloop
endfacet
facet normal -0.516956 -0.855353 -0.033575
outer loop
vertex -0.000753 -0.001212 0.015335
vertex -0.002065 -0.000463 0.016445
vertex -0.001413 -0.000752 0.013764
endloop
endfacet
facet normal -0.930275 0.354759 0.093458
outer loop
vertex -0.002065 -0.000463 0.016445
vertex -0.001941 0.005500 -0.004953
vertex -0.002230 0.004404 -0.003668
endloop
endfacet
facet normal -0.777834 -0.380901 -0.499888
outer loop
vertex -0.001098 0.004536 -0.005530
vertex -0.002230 0.004404 -0.003668
vertex -0.001941 0.005500 -0.004953
endloop
endfacet
facet normal -0.566514 -0.001721 -0.824051
outer loop
vertex -0.001941 0.005500 -0.004953
vertex -0.001192 0.006398 -0.005469
vertex -0.001098 0.004536 -0.005530
endloop
endfacet
facet normal 0.000063 0.461702 -0.887035
outer loop
vertex 0.001192 0.006398 -0.005469
vertex 0.000433 0.005615 -0.005877
vertex -0.001192 0.006398 -0.005469
endloop
endfacet
facet normal -0.234108 0.019971 -0.972005
outer loop
vertex -0.001192 0.006398 -0.005469
vertex 0.000433 0.005615 -0.005877
vertex -0.001098 0.004536 -0.005530
endloop
endfacet
facet normal 0.821887 -0.018180 -0.569361
outer loop
vertex -0.000839 0.000092 0.011053
vertex -0.001150 0.002133 0.010538
vertex -0.000248 0.002108 0.011841
endloop
endfacet
facet normal 0.202469 0.951618 0.231150
outer loop
vertex 0.001150 0.002048 0.010864
vertex -0.000248 0.002108 0.011841
vertex 0.000748 0.000414 0.017943
endloop
endfacet
facet normal -0.568410 0.083713 -0.818475
outer loop
vertex 0.001581 0.000391 0.010395
vertex -0.000248 0.002108 0.011841
vertex 0.001150 0.002048 0.010864
endloop
endfacet
facet normal -0.285958 0.420428 -0.861086
outer loop
vertex -0.000248 0.002108 0.011841
vertex 0.001581 0.000391 0.010395
vertex -0.000839 0.000092 0.011053
endloop
endfacet
facet normal 0.554308 0.803539 0.216952
outer loop
vertex 0.001150 0.002048 0.010864
vertex 0.000748 0.000414 0.017943
vertex 0.001478 0.000089 0.017279
endloop
endfacet
facet normal 0.704191 0.686412 0.181530
outer loop
vertex 0.001950 0.005481 -0.004942
vertex 0.001192 0.006398 -0.005469
vertex 0.001478 0.000089 0.017279
endloop
endfacet
facet normal 0.519620 -0.060288 -0.852268
outer loop
vertex 0.000433 0.005615 -0.005877
vertex 0.001192 0.006398 -0.005469
vertex 0.001950 0.005481 -0.004942
endloop
endfacet
facet normal 0.794671 0.585834 0.159049
outer loop
vertex 0.001478 0.000089 0.017279
vertex 0.002087 -0.000042 0.014719
vertex 0.001950 0.005481 -0.004942
endloop
endfacet
facet normal 0.459696 -0.383204 -0.801146
outer loop
vertex 0.000433 0.005615 -0.005877
vertex 0.001950 0.005481 -0.004942
vertex 0.001346 0.004565 -0.004851
endloop
endfacet
facet normal 0.058005 -0.971769 -0.228692
outer loop
vertex 0.002266 0.000062 0.011965
vertex -0.000839 0.000092 0.011053
vertex 0.001581 0.000391 0.010395
endloop
endfacet
facet normal 0.686270 -0.699583 0.199042
outer loop
vertex 0.001478 0.000089 0.017279
vertex 0.000766 -0.001180 0.015269
vertex 0.002087 -0.000042 0.014719
endloop
endfacet
facet normal 0.084648 -0.855612 0.510649
outer loop
vertex 0.000748 0.000414 0.017943
vertex 0.000766 -0.001180 0.015269
vertex 0.001478 0.000089 0.017279
endloop
endfacet
facet normal -0.846790 -0.324956 0.421129
outer loop
vertex 0.001346 0.004565 -0.004851
vertex 0.001150 0.006054 -0.004096
vertex 0.000433 0.005615 -0.005877
endloop
endfacet
facet normal 0.506973 0.680062 0.529617
outer loop
vertex 0.000709 -0.002899 0.022233
vertex 0.000748 0.000414 0.017943
vertex -0.000758 -0.001776 0.022196
endloop
endfacet
facet normal 0.999982 0.002409 0.005533
outer loop
vertex 0.000751 -0.004789 0.019673
vertex 0.000766 -0.001180 0.015269
vertex 0.000748 0.000414 0.017943
endloop
endfacet
facet normal 0.999909 0.004766 0.012625
outer loop
vertex 0.000751 -0.004789 0.019673
vertex 0.000748 0.000414 0.017943
vertex 0.000709 -0.002899 0.022233
endloop
endfacet
facet normal -0.426801 -0.533732 0.730048
outer loop
vertex -0.000751 -0.004959 0.019873
vertex 0.000709 -0.002899 0.022233
vertex -0.000758 -0.001776 0.022196
endloop
endfacet
facet normal -0.999991 0.000796 -0.004239
outer loop
vertex -0.000751 -0.004959 0.019873
vertex -0.000758 -0.001776 0.022196
vertex -0.000738 0.000454 0.017896
endloop
endfacet
facet normal -0.999987 0.003620 0.003491
outer loop
vertex -0.000753 -0.001212 0.015335
vertex -0.000751 -0.004959 0.019873
vertex -0.000738 0.000454 0.017896
endloop
endfacet
facet normal -0.703120 -0.704682 -0.095106
outer loop
vertex -0.002065 -0.000463 0.016445
vertex -0.001842 -0.000152 0.012497
vertex -0.001413 -0.000752 0.013764
endloop
endfacet
facet normal -0.260480 -0.938891 -0.225021
outer loop
vertex -0.002065 -0.000463 0.016445
vertex -0.002230 0.004404 -0.003668
vertex -0.001098 0.004536 -0.005530
endloop
endfacet
facet normal 0.156153 0.961624 0.225602
outer loop
vertex -0.002065 -0.000463 0.016445
vertex -0.001098 0.004536 -0.005530
vertex -0.002259 0.004018 -0.002519
endloop
endfacet
facet normal -0.326727 -0.920538 -0.214149
outer loop
vertex -0.002065 -0.000463 0.016445
vertex -0.002259 0.004018 -0.002519
vertex -0.001182 0.002245 0.003459
endloop
endfacet
facet normal 0.118139 0.970457 0.210372
outer loop
vertex -0.002065 -0.000463 0.016445
vertex -0.001182 0.002245 0.003459
vertex -0.002259 0.002206 0.004242
endloop
endfacet
facet normal -0.378980 -0.905275 -0.191968
outer loop
vertex -0.002065 -0.000463 0.016445
vertex -0.002259 0.002206 0.004242
vertex -0.001300 0.001312 0.006568
endloop
endfacet
facet normal -0.139707 0.987732 0.069760
outer loop
vertex -0.002065 -0.000463 0.016445
vertex -0.000839 0.000092 0.011053
vertex -0.001842 -0.000152 0.012497
endloop
endfacet
facet normal 0.007428 -0.958795 -0.284003
outer loop
vertex -0.001413 -0.000752 0.013764
vertex 0.000766 -0.001180 0.015269
vertex -0.000753 -0.001212 0.015335
endloop
endfacet
facet normal 0.317821 -0.685139 -0.655419
outer loop
vertex -0.001413 -0.000752 0.013764
vertex 0.002087 -0.000042 0.014719
vertex 0.000766 -0.001180 0.015269
endloop
endfacet
facet normal -0.447649 -0.873449 -0.191566
outer loop
vertex -0.001300 0.001312 0.006568
vertex -0.000839 0.000092 0.011053
vertex -0.002065 -0.000463 0.016445
endloop
endfacet
facet normal -0.208612 -0.947238 -0.243353
outer loop
vertex -0.001182 0.002245 0.003459
vertex -0.002259 0.004018 -0.002519
vertex -0.001098 0.004536 -0.005530
endloop
endfacet
facet normal 0.032975 -0.989012 -0.144112
outer loop
vertex 0.002266 0.000062 0.011965
vertex -0.001842 -0.000152 0.012497
vertex -0.000839 0.000092 0.011053
endloop
endfacet
facet normal -0.176490 -0.940883 -0.289120
outer loop
vertex -0.002259 0.002206 0.004242
vertex -0.001182 0.002245 0.003459
vertex -0.001300 0.001312 0.006568
endloop
endfacet
facet normal 0.465728 0.861731 0.201288
outer loop
vertex -0.001192 0.006398 -0.005469
vertex -0.001150 0.006054 -0.004096
vertex 0.000433 0.005615 -0.005877
endloop
endfacet
facet normal -0.485084 0.844671 0.226328
outer loop
vertex -0.001192 0.006398 -0.005469
vertex -0.001150 0.002133 0.010538
vertex -0.001150 0.006054 -0.004096
endloop
endfacet
facet normal 0.540666 -0.567818 0.620696
outer loop
vertex 0.000433 0.005615 -0.005877
vertex -0.001150 0.006054 -0.004096
vertex -0.001098 0.004536 -0.005530
endloop
endfacet
facet normal -0.746175 0.650909 0.139785
outer loop
vertex 0.001192 0.006398 -0.005469
vertex 0.000433 0.005615 -0.005877
vertex 0.001150 0.006054 -0.004096
endloop
endfacet
facet normal 0.999684 0.020526 0.014537
outer loop
vertex -0.001182 0.002245 0.003459
vertex -0.001098 0.004536 -0.005530
vertex -0.001150 0.006054 -0.004096
endloop
endfacet
facet normal 0.988928 -0.148239 -0.006761
outer loop
vertex -0.001150 0.002133 0.010538
vertex -0.001300 0.001312 0.006568
vertex -0.001182 0.002245 0.003459
endloop
endfacet
facet normal 0.988783 0.134362 -0.065232
outer loop
vertex -0.001150 0.002133 0.010538
vertex -0.000839 0.000092 0.011053
vertex -0.001300 0.001312 0.006568
endloop
endfacet
facet normal 0.999832 -0.017723 -0.004749
outer loop
vertex -0.001150 0.006054 -0.004096
vertex -0.001150 0.002133 0.010538
vertex -0.001182 0.002245 0.003459
endloop
endfacet
facet normal 0.515772 0.827210 0.222941
outer loop
vertex 0.001478 0.000089 0.017279
vertex 0.001192 0.006398 -0.005469
vertex 0.001150 0.006054 -0.004096
endloop
endfacet
facet normal 0.577229 0.788778 0.211273
outer loop
vertex 0.001478 0.000089 0.017279
vertex 0.001150 0.006054 -0.004096
vertex 0.001150 0.002048 0.010864
endloop
endfacet
facet normal -0.989558 -0.142201 0.023544
outer loop
vertex 0.001575 0.003582 -0.001177
vertex 0.001150 0.006054 -0.004096
vertex 0.001346 0.004565 -0.004851
endloop
endfacet
facet normal -0.968510 -0.248704 -0.011635
outer loop
vertex 0.001581 0.000391 0.010395
vertex 0.001150 0.002048 0.010864
vertex 0.001169 0.002306 0.003697
endloop
endfacet
facet normal -0.917827 -0.358630 -0.170227
outer loop
vertex 0.001169 0.002306 0.003697
vertex 0.001150 0.006054 -0.004096
vertex 0.001575 0.003582 -0.001177
endloop
endfacet
facet normal -0.999925 -0.011842 -0.003197
outer loop
vertex 0.001150 0.002048 0.010864
vertex 0.001150 0.006054 -0.004096
vertex 0.001169 0.002306 0.003697
endloop
endfacet
facet normal 0.808932 -0.553389 -0.198468
outer loop
vertex 0.001575 0.003582 -0.001177
vertex 0.001346 0.004565 -0.004851
vertex 0.001950 0.005481 -0.004942
endloop
endfacet
facet normal 0.245479 -0.921805 -0.300027
outer loop
vertex 0.001950 0.005481 -0.004942
vertex 0.002266 0.000062 0.011965
vertex 0.001581 0.000391 0.010395
endloop
endfacet
facet normal 0.456435 -0.847691 -0.270346
outer loop
vertex 0.001950 0.005481 -0.004942
vertex 0.001581 0.000391 0.010395
vertex 0.001169 0.002306 0.003697
endloop
endfacet
facet normal -0.101112 0.936712 0.335183
outer loop
vertex 0.001950 0.005481 -0.004942
vertex 0.001169 0.002306 0.003697
vertex 0.002259 0.002142 0.004484
endloop
endfacet
facet normal 0.725898 -0.640491 -0.250688
outer loop
vertex 0.001950 0.005481 -0.004942
vertex 0.002259 0.002142 0.004484
vertex 0.001575 0.003582 -0.001177
endloop
endfacet
facet normal 0.035248 -0.967495 -0.250420
outer loop
vertex 0.002259 0.002142 0.004484
vertex 0.001169 0.002306 0.003697
vertex 0.001575 0.003582 -0.001177
endloop
endfacet
facet normal -0.007817 -0.904974 -0.425395
outer loop
vertex -0.001413 -0.000752 0.013764
vertex -0.001842 -0.000152 0.012497
vertex 0.002266 0.000062 0.011965
endloop
endfacet
facet normal -0.011771 -0.771052 -0.636663
outer loop
vertex 0.000766 -0.001180 0.015269
vertex -0.000751 -0.004959 0.019873
vertex -0.000753 -0.001212 0.015335
endloop
endfacet
facet normal 0.002730 -0.773450 -0.633852
outer loop
vertex 0.000766 -0.001180 0.015269
vertex 0.000751 -0.004789 0.019673
vertex -0.000751 -0.004959 0.019873
endloop
endfacet
facet normal 0.168114 -0.791752 0.587254
outer loop
vertex 0.000751 -0.004789 0.019673
vertex 0.000709 -0.002899 0.022233
vertex -0.000751 -0.004959 0.019873
endloop
endfacet
endsolid Exported from Blender-3.0.1
